HIERARCHY
ROOT Hips
{
	OFFSET 0.00000 0.00000 0.00000
	CHANNELS 6 Xposition Yposition Zposition Zrotation Yrotation Xrotation 
	JOINT LHipJoint
	{
		OFFSET 0 0 0
		CHANNELS 3 Zrotation Yrotation Xrotation
		JOINT LeftUpLeg
		{
			OFFSET 1.34019 -1.87553 0.90315
			CHANNELS 3 Zrotation Yrotation Xrotation
			JOINT LeftLeg
			{
				OFFSET 2.55316 -7.01474 0.00000
				CHANNELS 3 Zrotation Yrotation Xrotation
				JOINT LeftFoot
				{
					OFFSET 2.64657 -7.27139 0.00000
					CHANNELS 3 Zrotation Yrotation Xrotation
					JOINT LeftToeBase
					{
						OFFSET 0.24207 -0.66507 2.14489
						CHANNELS 3 Zrotation Yrotation Xrotation
						End Site
						{
							OFFSET 0.00000 -0.00000 1.12451
						}
					}
				}
			}
		}
	}
	JOINT RHipJoint
	{
		OFFSET 0 0 0
		CHANNELS 3 Zrotation Yrotation Xrotation
		JOINT RightUpLeg
		{
			OFFSET -1.28320 -1.87553 0.90315
			CHANNELS 3 Zrotation Yrotation Xrotation
			JOINT RightLeg
			{
				OFFSET -2.60484 -7.15674 0.00000
				CHANNELS 3 Zrotation Yrotation Xrotation
				JOINT RightFoot
				{
					OFFSET -2.60296 -7.15159 0.00000
					CHANNELS 3 Zrotation Yrotation Xrotation
					JOINT RightToeBase
					{
						OFFSET -0.31082 -0.85398 2.28998
						CHANNELS 3 Zrotation Yrotation Xrotation
						End Site
						{
							OFFSET -0.00000 -0.00000 1.21611
						}
					}
				}
			}
		}
	}
	JOINT LowerBack
	{
		OFFSET 0 0 0
		CHANNELS 3 Zrotation Yrotation Xrotation
		JOINT Spine
		{
			OFFSET -0.00160 2.05581 -0.15156
			CHANNELS 3 Zrotation Yrotation Xrotation
			JOINT Spine1
			{
				OFFSET 0.04594 2.06326 -0.01617
				CHANNELS 3 Zrotation Yrotation Xrotation
				JOINT Neck
				{
					OFFSET 0 0 0
					CHANNELS 3 Zrotation Yrotation Xrotation
					JOINT Neck1
					{
						OFFSET 0.03753 1.73883 0.26751
						CHANNELS 3 Zrotation Yrotation Xrotation
						JOINT Head
						{
							OFFSET -0.09795 1.76129 -0.31794
							CHANNELS 3 Zrotation Yrotation Xrotation
							End Site
							{
								OFFSET -0.03611 1.79987 -0.13846
							}
						}
					}
				}
				JOINT LeftShoulder
				{
					OFFSET 0 0 0
					CHANNELS 3 Zrotation Yrotation Xrotation
					JOINT LeftArm
					{
						OFFSET 3.30667 1.29205 -0.22445
						CHANNELS 3 Zrotation Yrotation Xrotation
						JOINT LeftForeArm
						{
							OFFSET 4.92785 -0.00000 -0.00000
							CHANNELS 3 Zrotation Yrotation Xrotation
							JOINT LeftHand
							{
								OFFSET 3.44052 -0.00000 0.00000
								CHANNELS 3 Zrotation Yrotation Xrotation
								JOINT LeftFingerBase
								{
									OFFSET 0 0 0
									CHANNELS 3 Zrotation Yrotation Xrotation
									JOINT LeftHandIndex1
									{
										OFFSET 0.65433 -0.00000 0.00000
										CHANNELS 3 Zrotation Yrotation Xrotation
										End Site
										{
											OFFSET 0.52753 -0.00000 0.00000
										}
									}
								}
								JOINT LThumb
								{
									OFFSET 0 0 0
									CHANNELS 3 Zrotation Yrotation Xrotation
									End Site
									{
										OFFSET 0.53559 -0.00000 0.53559
									}
								}
							}
						}
					}
				}
				JOINT RightShoulder
				{
					OFFSET 0 0 0
					CHANNELS 3 Zrotation Yrotation Xrotation
					JOINT RightArm
					{
						OFFSET -3.20032 1.49783 -0.27688
						CHANNELS 3 Zrotation Yrotation Xrotation
						JOINT RightForeArm
						{
							OFFSET -5.09181 -0.00000 -0.00000
							CHANNELS 3 Zrotation Yrotation Xrotation
							JOINT RightHand
							{
								OFFSET -3.49865 -0.00000 -0.00000
								CHANNELS 3 Zrotation Yrotation Xrotation
								JOINT RightFingerBase
								{
									OFFSET 0 0 0
									CHANNELS 3 Zrotation Yrotation Xrotation
									JOINT RightHandIndex1
									{
										OFFSET -0.66641 -0.00000 0.00000
										CHANNELS 3 Zrotation Yrotation Xrotation
										End Site
										{
											OFFSET -0.53728 -0.00000 0.00000
										}
									}
								}
								JOINT RThumb
								{
									OFFSET 0 0 0
									CHANNELS 3 Zrotation Yrotation Xrotation
									End Site
									{
										OFFSET -0.54548 -0.00000 0.54548
									}
								}
							}
						}
					}
				}
			}
		}
	}
}
MOTION
Frames: 5
Frame Time: .0083333
1.0091 17.4166 -9.3999 5.9604 13.6891 7.1207 0.0000 0.0000 0.0000 -23.0755 4.8292 16.2013 0.2485 3.2076 8.8572 0.2047 2.1271 -9.6022 2.0502 -8.9698 -25.7010 0.0000 0.0000 0.0000 11.8993 7.3322 -39.9389 -6.3179 -14.7295 46.2446 0.5122 -14.6060 -13.3803 -0.0046 0.4384 -1.2046 -10.2126 -0.2212 4.7326 0.5365 -0.9318 -1.6361 6.3872 -0.1793 -4.2241 1.1715 -0.9063 -18.7258 -0.0215 -1.5077 9.9490 -0.3521 -0.6847 6.0446 -0.0000 -0.0000 0.0000 -89.7151 4.0867 15.4190 11.1095 -18.4558 -1.8104 -0.0000 -0.0000 1.9141 13.0212 1.6547 0.3826 -7.1250 0.0000 -0.0000 -10.8232 31.5607 3.6141 -0.0000 -0.0000 0.0000 86.9340 -1.3509 16.7921 -13.2915 21.7129 -2.5601 0.0000 -0.0000 -4.0239 -15.3464 -1.6696 0.4581 7.1250 -0.0000 -0.0000 8.9831 -31.6306 2.9696
0.9999 17.4300 -9.2020 5.9185 13.4985 6.9629 0.0000 0.0000 0.0000 -22.7714 4.7613 16.1690 0.3273 3.6772 10.1701 0.1635 1.7998 -8.5206 2.2383 -9.3456 -26.8826 0.0000 0.0000 0.0000 12.2684 7.0555 -39.4010 -6.4217 -14.8249 46.6516 0.4681 -14.2612 -13.4775 -0.0090 0.6133 -1.6852 -10.1048 -0.2180 4.7775 0.5318 -0.9290 -1.6894 6.3223 -0.1745 -4.3074 1.1938 -0.8369 -18.8504 0.0350 -1.4295 9.8865 -0.3298 -0.6412 6.0455 0.0000 -0.0000 0.0000 -89.8137 4.5843 13.8950 10.6634 -17.7706 -1.6718 -0.0000 -0.0000 3.2875 12.6078 1.6242 0.3632 -7.1250 0.0000 -0.0000 -11.1457 31.5197 3.7367 0.0000 -0.0000 0.0000 87.1101 -1.5883 16.4879 -13.1209 21.4640 -2.4973 0.0000 -0.0000 -3.8384 -15.5092 -1.7302 0.4800 7.1250 -0.0000 -0.0000 8.8602 -31.6963 2.9139
0.9922 17.4531 -9.0023 5.8292 13.3557 6.7741 0.0000 0.0000 0.0000 -22.3787 4.7363 15.9815 0.4306 4.2111 11.6714 0.1193 1.3349 -7.1565 2.4229 -9.6964 -27.9990 0.0000 0.0000 0.0000 12.7261 6.6294 -38.7174 -6.4645 -14.8639 46.8188 0.4179 -13.8832 -13.6327 -0.0194 0.8990 -2.4709 -9.9107 -0.2348 4.8196 0.5337 -0.9455 -1.7301 6.2168 -0.1831 -4.3728 1.2265 -0.7678 -18.9595 0.0612 -1.3494 9.7816 -0.3183 -0.5994 6.0299 0.0000 -0.0000 0.0000 -89.9084 5.0944 12.3305 10.2606 -17.1462 -1.5509 -0.0000 -0.0000 4.6360 12.1775 1.6145 0.3483 -7.1250 0.0000 -0.0000 -11.4838 31.4993 3.8598 0.0000 -0.0000 0.0000 87.2706 -1.8371 16.2943 -12.9526 21.2178 -2.4361 0.0000 -0.0000 -3.7273 -15.6957 -1.8187 0.5110 7.1250 -0.0000 -0.0000 8.7212 -31.7915 2.8470
0.9871 17.4865 -8.8027 5.6692 13.2433 6.5784 0.0000 0.0000 0.0000 -21.9284 4.6363 15.6101 0.5664 4.8199 13.3957 0.0723 0.8975 -5.4924 2.5963 -10.0110 -29.0124 0.0000 0.0000 0.0000 13.2818 6.0646 -37.9112 -6.4372 -14.8391 46.7123 0.3622 -13.4460 -13.7844 -0.0356 1.2176 -3.3478 -9.5900 -0.2642 4.8379 0.5413 -0.9671 -1.7657 6.0457 -0.1992 -4.4190 1.2716 -0.7010 -19.0430 0.0681 -1.2723 9.6414 -0.3151 -0.5604 5.9985 -0.0000 -0.0000 0.0000 -89.9883 5.5939 10.7754 9.8890 -16.5658 -1.4432 -0.0000 -0.0000 5.9334 11.7482 1.6681 0.3469 -7.1250 0.0000 -0.0000 -11.8292 31.5422 3.9678 -0.0000 -0.0000 0.0000 87.4160 -2.0931 16.2194 -12.7961 20.9878 -2.3798 0.0000 -0.0000 -3.7111 -15.8850 -1.9590 0.5573 7.1250 -0.0000 -0.0000 8.5852 -31.9402 2.7707
0.9838 17.5316 -8.6037 5.4203 13.1781 6.3940 0.0000 0.0000 0.0000 -21.4011 4.4342 15.0184 0.7416 5.5013 15.3440 0.0300 0.5062 -3.4972 2.7308 -10.2460 -29.7770 0.0000 0.0000 0.0000 13.9426 5.3909 -36.9921 -6.3358 -14.7460 46.3148 0.3080 -12.9822 -13.8706 -0.0551 1.5147 -4.1663 -9.1429 -0.3113 4.8265 0.5661 -1.0004 -1.8118 5.8218 -0.2247 -4.4584 1.3225 -0.6437 -19.0890 0.0592 -1.2067 9.4974 -0.3189 -0.5282 5.9597 0.0000 0.0000 0.0000 -90.0582 6.0943 9.2716 9.5527 -16.0368 -1.3487 -0.0000 -0.0000 7.1692 11.3391 1.7996 0.3608 -7.1250 0.0000 -0.0000 -12.1694 31.6626 4.0505 0.0000 0.0000 0.0000 87.5405 -2.3659 16.2494 -12.6465 20.7671 -2.3264 0.0000 -0.0000 -3.7350 -16.0496 -2.1125 0.6076 7.1250 -0.0000 -0.0000 8.4699 -32.1021 2.6994
